<svg width="23" height="23" viewBox="0 0 23 23" fill="none" xmlns="http://www.w3.org/2000/svg">
<g clip-path="url(#clip0_12202_3855)">
<path d="M2.242 22.0852C2.242 22.0706 4.91438 19.8022 11.2162 19.8022C17.3374 19.8022 20.1903 22.0706 20.1903 22.0852H2.242Z" fill="#F6CC90"/>
<path d="M11.2157 19.8023C10.8248 19.8023 10.4479 19.811 10.0847 19.8274C15.4473 20.0751 17.9573 22.0716 17.9573 22.0852H20.1899C20.1899 22.0706 17.337 19.8023 11.2157 19.8023Z" fill="#F0C17F"/>
<path d="M15.291 4.00735C14.5608 6.12534 12.5932 6.48982 12.5932 6.48982C12.5932 6.48982 11.2894 4.9288 12.0006 2.86583C12.7497 0.69282 14.7173 0.328339 14.7173 0.328339C14.7173 0.328339 16.0306 1.86187 15.291 4.00735Z" fill="#C5E866"/>
<path d="M14.7178 0.328339C14.7178 0.328339 14.1978 0.424734 13.5907 0.813556C13.9243 1.42888 14.3378 2.58317 13.8468 4.0073C13.4936 5.03189 12.8508 5.64607 12.2813 6.00718C12.4484 6.31563 12.5937 6.48973 12.5937 6.48973C12.5937 6.48973 14.5613 6.12529 15.2915 4.00726C16.0311 1.86187 14.7178 0.328339 14.7178 0.328339Z" fill="#B2D94B"/>
<path d="M13.3293 13.9645C12.1297 14.1349 11.2467 13.8899 11.2467 13.8899C11.2467 13.8899 10.483 10.8254 12.8696 8.43115C15.3835 5.90924 18.3748 6.73924 18.3748 6.73924C18.3748 6.73924 19.031 9.24062 17.2922 11.5651" fill="#9CC042"/>
<path d="M18.3745 6.73923C18.3745 6.73923 17.5725 6.5168 16.45 6.65233C16.7531 6.69033 16.9299 6.73923 16.9299 6.73923C16.9299 6.73923 17.5861 9.24061 15.8473 11.5651L11.8843 13.9645C11.8405 13.9707 11.7971 13.9762 11.7542 13.9814C12.1281 14.0275 12.6824 14.0564 13.329 13.9645L17.2919 11.5651C19.0307 9.24061 18.3745 6.73923 18.3745 6.73923Z" fill="#85AA18"/>
<path d="M8.38636 12.3573C10.5155 14.0353 10.1522 16.4406 10.1522 16.4406C10.1522 16.4406 7.8533 17.3203 5.77952 15.6859C3.59513 13.9642 3.95843 11.559 3.95843 11.559C3.95843 11.559 6.22963 10.6574 8.38636 12.3573Z" fill="#C5E866"/>
<path d="M5.94448 8.89637C8.08812 11.6276 11.1562 11.1579 11.1562 11.1579C11.1562 11.1579 12.2755 8.20536 10.1875 5.54503C7.98822 2.74286 4.92015 3.21249 4.92015 3.21249C4.92015 3.21249 3.77299 6.12966 5.94448 8.89637Z" fill="#9CC042"/>
<path d="M16.7379 15.2027C14.8984 16.4745 13.0983 15.5982 13.0983 15.5982C13.0983 15.5982 12.9704 13.5657 14.7621 12.3269C16.6494 11.0221 18.4494 11.8985 18.4494 11.8985C18.4494 11.8985 18.6012 13.9144 16.7379 15.2027Z" fill="#C5E866"/>
<path d="M18.4496 11.8985C18.4496 11.8985 17.5113 11.4419 16.2793 11.6789C16.7287 11.764 17.0049 11.8985 17.0049 11.8985C17.0049 11.8985 17.1567 13.9144 15.2933 15.2027C14.7946 15.5475 14.2989 15.7342 13.841 15.8235C14.5356 15.9553 15.6295 15.9691 16.7379 15.2027C18.6013 13.9144 18.4496 11.8985 18.4496 11.8985Z" fill="#B2D94B"/>
<path d="M20.2446 21.7146C19.5953 21.2569 18.855 20.9161 18.1163 20.6318C16.7833 20.1189 14.5651 19.5105 11.493 19.4756C11.5429 19.0507 11.6611 18.4404 11.9379 17.7609C12.2129 17.0859 12.5851 16.4771 13.0515 15.9361C13.2705 16.0263 13.8342 16.2238 14.5709 16.2238C15.2531 16.2238 16.0835 16.0542 16.9245 15.4727C18.9197 14.0933 18.7836 11.9638 18.7768 11.8738C18.768 11.7574 18.6981 11.6544 18.5931 11.6033C18.5631 11.5887 18.2792 11.4543 17.8305 11.3632C18.1964 10.789 18.4648 10.1656 18.6302 9.5041C18.7329 9.09322 18.096 8.93405 17.9931 9.34484C17.8187 10.0425 17.5161 10.6929 17.0936 11.2803C16.3826 11.2635 15.4899 11.4246 14.5753 12.0569C13.8937 12.5282 13.4681 13.1017 13.2025 13.6498C12.6263 13.7231 12.1311 13.6962 11.7956 13.6549C12.4627 12.7552 14.2014 10.5744 16.1589 9.43542C16.525 9.22245 16.1948 8.6548 15.8287 8.86786C13.9238 9.97619 12.2657 11.9492 11.4666 12.9967C11.4205 11.9747 11.5977 10.1721 13.1022 8.6629C14.0828 7.67924 15.2499 7.10927 16.571 6.96893C17.2625 6.89547 17.8189 6.96521 18.0959 7.01511C18.125 7.18645 18.1609 7.46312 18.167 7.81044C18.1744 8.22991 18.831 8.22483 18.8236 7.79893C18.8117 7.11746 18.6973 6.6744 18.6925 6.65588C18.6628 6.54281 18.5753 6.45407 18.4626 6.42282C18.4298 6.41371 17.6426 6.20017 16.5319 6.31276C15.5097 6.41647 14.0042 6.82792 12.6372 8.19926C12.5231 8.31369 12.4164 8.42961 12.3159 8.54654C12.5002 7.9788 12.7016 7.36475 12.9073 6.7472C13.502 6.56575 14.9707 5.94399 15.6015 4.11427C16.3933 1.81741 15.0254 0.183153 14.9668 0.114686C14.8907 0.0256891 14.7728 -0.0159422 14.6576 0.00542065C14.5696 0.0217492 12.4926 0.431496 11.6903 2.75873C11.0242 4.69094 11.9734 6.20096 12.2636 6.5991C12.0721 7.17415 11.8852 7.74425 11.7125 8.27574C11.5795 7.38747 11.233 6.34529 10.4458 5.34233C9.24999 3.8186 7.80357 3.23165 6.8007 3.00752C5.71102 2.76399 4.90431 2.88275 4.87047 2.88796C4.75485 2.90565 4.65741 2.98353 4.61459 3.09235C4.60536 3.11582 4.38779 3.67677 4.31354 4.53702C4.27721 4.95898 4.93136 5.01532 4.96778 4.59349C5.00959 4.10889 5.10253 3.73066 5.16469 3.51952C5.44608 3.50285 6.0066 3.49961 6.68408 3.6544C7.97951 3.95037 9.07133 4.65469 9.92926 5.74774C10.742 6.78336 11.145 7.98476 11.1269 9.31862C11.121 9.75323 11.0689 10.1322 11.0114 10.4234C9.71261 8.0045 7.87361 6.14611 7.79298 6.06521C7.49407 5.7653 7.02908 6.22876 7.3279 6.52871C7.34729 6.54819 9.24302 8.46525 10.4989 10.8583C10.2054 10.8516 9.82477 10.8192 9.39782 10.7248C8.11233 10.4404 7.03731 9.757 6.20271 8.69363C5.62163 7.95319 5.23688 7.13147 5.05914 6.2513C4.97536 5.83621 4.33162 5.96614 4.4155 6.38127C4.61367 7.36283 5.04119 8.27723 5.6862 9.09904C6.85393 10.5869 8.28765 11.1564 9.2847 11.3722C9.78156 11.4798 10.2936 11.5308 10.802 11.5142V12.6966V12.7162V17.0429C10.703 16.8292 10.596 16.627 10.4833 16.4356C10.5278 16.047 10.6898 13.7549 8.58918 12.0993C6.31001 10.3031 3.93676 11.2141 3.83682 11.2538C3.7283 11.2969 3.65077 11.3944 3.63335 11.5099C3.61737 11.6158 3.26803 14.1248 5.57584 15.9437C6.64774 16.7885 7.76785 17.009 8.64526 17.009C9.21461 17.009 9.68153 16.9162 9.96696 16.8408C10.4241 17.6391 10.6943 18.5204 10.7755 19.4781C9.07632 19.5068 7.49114 19.7018 6.05812 20.0599C5.64723 20.1626 5.80641 20.7996 6.21733 20.697C7.60631 20.3499 9.14702 20.1612 10.802 20.1343V20.889C10.802 21.3125 11.4587 21.3125 11.4587 20.889V20.1324C15.331 20.1709 17.8057 21.119 19.0364 21.7569H3.35961C3.6787 21.5872 4.08722 21.3949 4.59095 21.2033C4.98678 21.0527 4.75332 20.4388 4.35754 20.5895C3.53975 20.9005 2.95744 21.2161 2.61288 21.4261C1.91333 21.8523 1.91333 21.9551 1.91333 22.0852C1.91333 22.2665 2.06029 22.4135 2.24165 22.4135H20.19C20.689 22.4135 20.4926 21.8894 20.2446 21.7146ZM14.9488 12.597C16.3341 11.6393 17.6498 11.955 18.1229 12.1207C18.1045 12.6278 17.921 13.9855 16.5511 14.9326C15.3089 15.7915 14.1004 15.5855 13.5499 15.4173C14.1971 14.8117 14.9843 14.3087 15.9081 13.913C16.2973 13.7462 16.0388 13.1426 15.6495 13.3094C14.816 13.6664 14.129 14.0916 13.5618 14.5472C13.7326 13.9379 14.1117 13.1758 14.9488 12.597ZM12.4721 14.3532C12.6192 14.3532 12.7759 14.3479 12.9402 14.336C12.8321 14.7111 12.7904 15.0411 12.7754 15.2729C12.1536 15.9328 11.737 16.6137 11.4587 17.2171V14.2699C11.6889 14.3096 12.0399 14.3532 12.4721 14.3532ZM12.3111 2.9728C12.8609 1.37807 14.1063 0.84956 14.5861 0.701333C14.8711 1.12146 15.5243 2.3236 14.9807 3.90033C14.5737 5.08094 13.7569 5.66356 13.1786 5.93922C13.6049 4.67916 14.0262 3.48542 14.3318 2.73597C14.4917 2.34382 13.8836 2.09583 13.7238 2.48802C13.4049 3.26991 12.9705 4.50165 12.5345 5.79104C12.236 5.21971 11.8892 4.19648 12.3111 2.9728ZM5.98234 15.428C5.14503 14.7681 4.60453 13.9281 4.37579 12.9315C4.26364 12.4429 4.2576 12.0329 4.26727 11.8041C4.82691 11.6473 6.54307 11.3228 8.18272 12.6152C8.99683 13.2568 9.521 14.0835 9.74076 15.0722C9.77272 15.2159 9.79544 15.3527 9.81155 15.4804C9.59289 15.2168 9.37037 14.9846 9.15613 14.7836C8.02342 13.7208 6.89906 13.2757 6.85174 13.2573C6.4571 13.1036 6.21882 13.7155 6.61347 13.8692C6.62384 13.8732 7.66576 14.2857 8.70681 15.2624C9.03942 15.5745 9.33233 15.9053 9.58623 16.2539C8.8588 16.4022 7.36292 16.516 5.98234 15.428Z" fill="#060606"/>
</g>
<defs>
<clipPath id="clip0_12202_3855">
<rect width="22.4135" height="22.4135" fill="white"/>
</clipPath>
</defs>
</svg>
